name rise44.8762peak52.3436fall86.788.mot
datacolumns 19
datarows 35
range 6.11497800000000 6.17164400000000
endheader
time	ground_force1_vx	ground_force1_vy	ground_force1_vz	ground_force1_px	ground_force1_py	ground_force1_pz	ground_force2_vx	ground_force2_vy	ground_force2_vz	ground_force2_px	ground_force2_py	ground_force2_pz	ground_torque1_x	ground_torque1_y	ground_torque1_z	ground_torque2_x	ground_torque2_y	ground_torque2_z	
6.11497800000000	-52.23356200000000	802.69059500000003	67.31338000000000	0.05337700000000	0.00000000000000	0.14818100000000	-10.63740500000000	51.68536600000000	10.86134400000000	0.30815400000000	0.00000000000000	-0.05957700000000	0.00000000000000	22.10928000000000	0.00000000000000	0.00000000000000	5.75973300000000	0.00000000000000	
6.11664200000000	-52.66022800000000	800.47845600000005	67.06825000000001	0.05280400000000	0.00000000000000	0.14801200000000	-11.27816600000000	57.84845600000000	11.79744500000000	0.31063200000000	0.00000000000000	-0.06009300000000	0.00000000000000	22.08796800000000	0.00000000000000	0.00000000000000	6.32790200000000	0.00000000000000	
6.11831000000000	-53.09525600000000	798.16373299999998	66.80177200000000	0.05224100000000	0.00000000000000	0.14783700000000	-11.73935900000000	63.83126100000000	12.60978800000000	0.31294000000000	0.00000000000000	-0.06058700000000	0.00000000000000	22.06869400000000	0.00000000000000	0.00000000000000	6.84236200000000	0.00000000000000	
6.11997400000000	-53.53889400000000	795.74544700000001	66.51376300000000	0.05168800000000	0.00000000000000	0.14765800000000	-12.01600600000000	69.59641600000000	13.29042900000000	0.31509300000000	0.00000000000000	-0.06106000000000	0.00000000000000	22.05157800000000	0.00000000000000	0.00000000000000	7.29754900000000	0.00000000000000	
6.12164200000000	-53.99136200000000	793.22257999999999	66.20406600000000	0.05114400000000	0.00000000000000	0.14747300000000	-12.11142100000000	75.13205100000000	13.83844100000000	0.31710400000000	0.00000000000000	-0.06151600000000	0.00000000000000	22.03672600000000	0.00000000000000	0.00000000000000	7.69147100000000	0.00000000000000	
6.12330400000000	-54.45284200000000	790.59407099999999	65.87254600000000	0.05060900000000	0.00000000000000	0.14728400000000	-12.03585100000000	80.44900699999999	14.25892500000000	0.31898300000000	0.00000000000000	-0.06195700000000	0.00000000000000	22.02423400000000	0.00000000000000	0.00000000000000	8.02529900000000	0.00000000000000	
6.12498000000000	-54.92348200000000	787.85881400000005	65.51909499999999	0.05008400000000	0.00000000000000	0.14709000000000	-11.80478200000000	85.57665200000000	14.56170600000000	0.32073900000000	0.00000000000000	-0.06238500000000	0.00000000000000	22.01418000000000	0.00000000000000	0.00000000000000	8.30275500000000	0.00000000000000	
6.12664600000000	-55.40338600000000	785.01565500000004	65.14362900000000	0.04956700000000	0.00000000000000	0.14689100000000	-11.43710000000000	90.55790000000000	14.75986100000000	0.32238000000000	0.00000000000000	-0.06280200000000	0.00000000000000	22.00662900000000	0.00000000000000	0.00000000000000	8.52941000000000	0.00000000000000	
6.12831000000000	-55.89261400000000	782.06339700000001	64.74609000000000	0.04905800000000	0.00000000000000	0.14668700000000	-10.95329200000000	95.44398300000000	14.86823800000000	0.32391300000000	0.00000000000000	-0.06320900000000	0.00000000000000	22.00163100000000	0.00000000000000	0.00000000000000	8.71193800000000	0.00000000000000	
6.12997700000000	-56.39117700000000	779.00079700000003	64.32644500000001	0.04855800000000	0.00000000000000	0.14647800000000	-10.37382500000000	100.28943599999999	14.90208500000000	0.32534600000000	0.00000000000000	-0.06360800000000	0.00000000000000	21.99921900000000	0.00000000000000	0.00000000000000	8.85741800000000	0.00000000000000	
6.13163900000000	-56.89903600000000	775.82656399999996	63.88469000000000	0.04806400000000	0.00000000000000	0.14626500000000	-9.71779600000000	105.14766600000000	14.87588900000000	0.32668300000000	0.00000000000000	-0.06399900000000	0.00000000000000	21.99940600000000	0.00000000000000	0.00000000000000	8.97272100000000	0.00000000000000	
6.13330600000000	-57.41609400000000	772.53936299999998	63.42084500000000	0.04757800000000	0.00000000000000	0.14604600000000	-9.00192300000000	110.06734500000000	14.80246100000000	0.32793100000000	0.00000000000000	-0.06438300000000	0.00000000000000	22.00219200000000	0.00000000000000	0.00000000000000	9.06401600000000	0.00000000000000	
6.13497300000000	-57.94219500000000	769.13781700000004	62.93495900000000	0.04709800000000	0.00000000000000	0.14582300000000	-8.23987800000000	115.08977400000001	14.69231400000000	0.32909200000000	0.00000000000000	-0.06476100000000	0.00000000000000	22.00755500000000	0.00000000000000	0.00000000000000	9.13642400000000	0.00000000000000	
6.13664200000000	-58.47712000000000	765.62050499999998	62.42710800000000	0.04662500000000	0.00000000000000	0.14559600000000	-7.44197800000000	120.24722800000001	14.55332300000000	0.33017200000000	0.00000000000000	-0.06513400000000	0.00000000000000	22.01545400000000	0.00000000000000	0.00000000000000	9.19380600000000	0.00000000000000	
6.13830800000000	-59.02058500000000	761.98596799999996	61.89739600000000	0.04615600000000	0.00000000000000	0.14536400000000	-6.61516600000000	125.56225000000001	14.39063700000000	0.33117500000000	0.00000000000000	-0.06550100000000	0.00000000000000	22.02583000000000	0.00000000000000	0.00000000000000	9.23868900000000	0.00000000000000	
6.13997400000000	-59.57223500000000	758.23270700000000	61.34595600000000	0.04569300000000	0.00000000000000	0.14512700000000	-5.76325100000000	131.04776500000000	14.20681600000000	0.33210300000000	0.00000000000000	-0.06586500000000	0.00000000000000	22.03860200000000	0.00000000000000	0.00000000000000	9.27230900000000	0.00000000000000	
6.14164100000000	-60.13164300000000	754.35919200000001	60.77294700000000	0.04523300000000	0.00000000000000	0.14488600000000	-4.88733600000000	136.70785599999999	14.00213100000000	0.33296100000000	0.00000000000000	-0.06622400000000	0.00000000000000	22.05367000000000	0.00000000000000	0.00000000000000	9.29474100000000	0.00000000000000	
6.14330600000000	-60.69830600000000	750.36386100000004	60.17856000000000	0.04477700000000	0.00000000000000	0.14464100000000	-3.98635900000000	142.53903099999999	13.77498000000000	0.33375100000000	0.00000000000000	-0.06658000000000	0.00000000000000	22.07091200000000	0.00000000000000	0.00000000000000	9.30510100000000	0.00000000000000	
6.14497400000000	-61.27164100000000	746.24512800000002	59.56301300000000	0.04432500000000	0.00000000000000	0.14439100000000	-3.05770400000000	148.53177400000001	13.52237400000000	0.33447500000000	0.00000000000000	-0.06693200000000	0.00000000000000	22.09018300000000	0.00000000000000	0.00000000000000	9.30177800000000	0.00000000000000	
6.14664500000000	-61.85098700000000	742.00138300000003	58.92655200000000	0.04387400000000	0.00000000000000	0.14413700000000	-2.09780600000000	154.67224300000001	13.24042400000000	0.33513700000000	0.00000000000000	-0.06728000000000	0.00000000000000	22.11132000000000	0.00000000000000	0.00000000000000	9.28268400000000	0.00000000000000	
6.14831200000000	-62.43559600000000	737.63100099999997	58.26945500000000	0.04342500000000	0.00000000000000	0.14388000000000	-1.10271200000000	160.94393199999999	12.92482100000000	0.33573900000000	0.00000000000000	-0.06762600000000	0.00000000000000	22.13413500000000	0.00000000000000	0.00000000000000	9.24549500000000	0.00000000000000	
6.14997500000000	-63.02463900000000	733.13234699999998	57.59202700000000	0.04297700000000	0.00000000000000	0.14361800000000	-0.06857300000000	167.32920200000001	12.57125200000000	0.33628200000000	0.00000000000000	-0.06796800000000	0.00000000000000	22.15841800000000	0.00000000000000	0.00000000000000	9.18787300000000	0.00000000000000	
6.15165100000000	-63.61719700000000	728.50378300000000	56.89460500000000	0.04253000000000	0.00000000000000	0.14335300000000	1.00797100000000	173.81057899999999	12.17574300000000	0.33677000000000	0.00000000000000	-0.06830800000000	0.00000000000000	22.18393800000000	0.00000000000000	0.00000000000000	9.10763900000000	0.00000000000000	
6.15331000000000	-64.21226500000000	723.74367700000005	56.17755300000000	0.04208200000000	0.00000000000000	0.14308400000000	2.12950800000000	180.37178800000001	11.73491900000000	0.33720400000000	0.00000000000000	-0.06864400000000	0.00000000000000	22.21044300000000	0.00000000000000	0.00000000000000	9.00291900000000	0.00000000000000	
6.15497700000000	-64.80874900000001	718.85040700000002	55.44126600000000	0.04163300000000	0.00000000000000	0.14281100000000	3.29768000000000	186.99847100000000	11.24617600000000	0.33758600000000	0.00000000000000	-0.06897800000000	0.00000000000000	22.23765700000000	0.00000000000000	0.00000000000000	8.87223800000000	0.00000000000000	
6.15664100000000	-65.40546700000000	713.82237599999996	54.68616900000000	0.04118200000000	0.00000000000000	0.14253500000000	4.51311200000000	193.67863199999999	10.70777100000000	0.33791700000000	0.00000000000000	-0.06930800000000	0.00000000000000	22.26528300000000	0.00000000000000	0.00000000000000	8.71456700000000	0.00000000000000	
6.15830900000000	-66.00114900000000	708.65801999999996	53.91271400000000	0.04072900000000	0.00000000000000	0.14225600000000	5.77542000000000	200.40279699999999	10.11883400000000	0.33820000000000	0.00000000000000	-0.06963600000000	0.00000000000000	22.29300400000000	0.00000000000000	0.00000000000000	8.52934100000000	0.00000000000000	
6.15997400000000	-66.59443700000000	703.35581700000000	53.12138500000000	0.04027300000000	0.00000000000000	0.14197400000000	7.08329700000000	207.16396399999999	9.47932400000000	0.33843500000000	0.00000000000000	-0.06996000000000	0.00000000000000	22.32048200000000	0.00000000000000	0.00000000000000	8.31643800000000	0.00000000000000	
6.16163900000000	-67.18388700000000	697.91430500000001	52.31269300000000	0.03981300000000	0.00000000000000	0.14168900000000	8.43464100000000	213.95736600000001	8.78994200000000	0.33862500000000	0.00000000000000	-0.07028200000000	0.00000000000000	22.34735600000000	0.00000000000000	0.00000000000000	8.07613900000000	0.00000000000000	
6.16330500000000	-67.76797000000001	692.33209099999999	51.48717900000000	0.03935000000000	0.00000000000000	0.14140100000000	9.82671100000000	220.78012600000000	8.05201100000000	0.33877100000000	0.00000000000000	-0.07060000000000	0.00000000000000	22.37325000000000	0.00000000000000	0.00000000000000	7.80906600000000	0.00000000000000	
6.16498000000000	-68.34507700000000	686.60786399999995	50.64541200000000	0.03888100000000	0.00000000000000	0.14111000000000	11.25630200000000	227.63082399999999	7.26734300000000	0.33887500000000	0.00000000000000	-0.07091400000000	0.00000000000000	22.39776600000000	0.00000000000000	0.00000000000000	7.51611600000000	0.00000000000000	
6.16664000000000	-68.91351800000000	680.74041399999999	49.78798800000000	0.03840700000000	0.00000000000000	0.14081700000000	12.71991300000000	234.50906200000000	6.43810100000000	0.33893700000000	0.00000000000000	-0.07122600000000	0.00000000000000	22.42049100000000	0.00000000000000	0.00000000000000	7.19839200000000	0.00000000000000	
6.16830900000000	-69.47152600000000	674.72864300000003	48.91553100000000	0.03792700000000	0.00000000000000	0.14052100000000	14.21390100000000	241.41502500000001	5.56667800000000	0.33895900000000	0.00000000000000	-0.07153300000000	0.00000000000000	22.44099200000000	0.00000000000000	0.00000000000000	6.85713900000000	0.00000000000000	
6.16997900000000	-70.01726499999999	668.57158100000004	48.02869100000000	0.03744000000000	0.00000000000000	0.14022300000000	15.73461100000000	248.34910500000001	4.65558400000000	0.33894200000000	0.00000000000000	-0.07183700000000	0.00000000000000	22.45882200000000	0.00000000000000	0.00000000000000	6.49368100000000	0.00000000000000	
6.17164400000000	-70.54882800000000	662.26840100000004	47.12814600000000	0.03694700000000	0.00000000000000	0.13992300000000	17.27848300000000	255.31157700000000	3.70735300000000	0.33888800000000	0.00000000000000	-0.07213700000000	0.00000000000000	22.47352100000000	0.00000000000000	0.00000000000000	6.10937800000000	0.00000000000000	
